<?xml version="1.0" encoding="UTF-8"?>
<svg id="Capa_1" xmlns="http://www.w3.org/2000/svg" version="1.1" viewBox="0 0 24 18">
  <!-- Generator: Adobe Illustrator 30.6.0, SVG Export Plug-In . SVG Version: 2.1.4 Build 109)  -->
  <defs>
    <style>
      .st0 {
        fill: #68773c;
      }
    </style>
  </defs>
  <g>
    <line class="st0" x1="1" y1="1" x2="23" y2="1"/>
    <path class="st0" d="M23,2H1c-.6,0-1-.4-1-1S.4,0,1,0h22c.6,0,1,.4,1,1s-.4,1-1,1Z"/>
  </g>
  <g>
    <line class="st0" x1="1" y1="9" x2="23" y2="9"/>
    <path class="st0" d="M23,10H1c-.6,0-1-.4-1-1s.4-1,1-1h22c.6,0,1,.4,1,1s-.4,1-1,1Z"/>
  </g>
  <g>
    <line class="st0" x1="1" y1="17" x2="23" y2="17"/>
    <path class="st0" d="M23,18H1c-.6,0-1-.4-1-1s.4-1,1-1h22c.6,0,1,.4,1,1s-.4,1-1,1Z"/>
  </g>
</svg>