<?xml version="1.0" encoding="UTF-8"?>
<svg id="Capa_2" data-name="Capa 2" xmlns="http://www.w3.org/2000/svg" viewBox="0 0 231.76 72.81">
  <defs>
    <style>
      .cls-1 {
        fill: #706f6f;
      }

      .cls-2 {
        fill: #efb814;
      }

      .cls-3 {
        fill: #68773c;
      }
    </style>
  </defs>
  <g id="Capa_1-2" data-name="Capa 1">
    <g>
      <circle class="cls-2" cx="229.88" cy="68.91" r="1.88"/>
      <path class="cls-1" d="M10.97,72.75v-7.67h5.26v.7h-4.45v6.27h4.61v.7h-5.42ZM11.69,69.2v-.69h4.05v.69h-4.05Z"/>
      <path class="cls-1" d="M19.09,72.75v-7.67h.81v6.97h4.3v.7h-5.11Z"/>
      <path class="cls-1" d="M33.96,72.81c-.58,0-1.11-.1-1.6-.29s-.92-.47-1.28-.82c-.36-.35-.64-.77-.84-1.24-.2-.47-.3-.99-.3-1.55s.1-1.08.3-1.55c.2-.47.48-.88.84-1.24.36-.35.79-.63,1.28-.82.49-.19,1.03-.29,1.61-.29s1.11.1,1.6.29c.49.19.91.47,1.28.82.36.35.64.76.84,1.24.2.47.3.99.3,1.56s-.1,1.08-.3,1.56-.48.89-.84,1.24c-.36.35-.79.62-1.28.82-.49.19-1.02.29-1.6.29ZM33.96,72.09c.46,0,.89-.08,1.28-.24s.73-.38,1.02-.67c.29-.29.51-.62.67-1.01.16-.38.24-.81.24-1.27s-.08-.88-.24-1.27c-.16-.38-.38-.72-.67-1.01-.29-.29-.63-.51-1.02-.67s-.82-.24-1.28-.24-.89.08-1.28.24c-.39.16-.74.38-1.03.67-.29.29-.52.62-.68,1.01-.16.38-.24.81-.24,1.27s.08.87.24,1.26c.16.39.39.73.68,1.01.29.29.64.51,1.03.67.4.16.82.24,1.28.24Z"/>
      <path class="cls-1" d="M40.85,72.75v-7.67h2.87c.97,0,1.74.23,2.29.7.56.46.84,1.11.84,1.93,0,.54-.13,1.01-.38,1.4s-.61.69-1.08.9c-.47.21-1.03.31-1.68.31h-2.42l.36-.37v2.81h-.81ZM41.66,70.01l-.36-.38h2.4c.77,0,1.35-.17,1.75-.5s.6-.81.6-1.41-.2-1.09-.6-1.43c-.4-.34-.98-.5-1.75-.5h-2.4l.36-.38v4.61ZM46.09,72.75l-1.97-2.78h.88l1.98,2.78h-.89Z"/>
      <path class="cls-1" d="M49.81,72.75v-7.67h.81v7.67h-.81Z"/>
      <path class="cls-1" d="M57.55,72.81c-.58,0-1.12-.1-1.62-.29s-.92-.47-1.28-.82c-.36-.35-.64-.76-.84-1.24s-.3-.99-.3-1.56.1-1.08.3-1.56c.2-.48.48-.89.85-1.24.37-.35.79-.62,1.29-.82.49-.19,1.03-.29,1.62-.29s1.12.09,1.6.27.9.46,1.24.83l-.5.52c-.32-.32-.68-.55-1.06-.69-.39-.14-.8-.21-1.25-.21-.47,0-.91.08-1.31.24s-.75.38-1.04.67c-.3.29-.53.62-.69,1.01s-.25.81-.25,1.27.08.87.25,1.26c.16.39.4.73.69,1.01.3.29.64.51,1.04.67s.83.24,1.3.24c.44,0,.85-.07,1.24-.2.39-.13.75-.35,1.08-.67l.46.61c-.37.32-.79.56-1.28.73-.49.16-1,.25-1.53.25ZM60.37,71.84l-.78-.1v-2.83h.78v2.93Z"/>
      <path class="cls-1" d="M63.62,72.75v-7.67h5.26v.7h-4.45v6.27h4.61v.7h-5.42ZM64.34,69.2v-.69h4.05v.69h-4.05Z"/>
      <path class="cls-1" d="M71.74,72.75v-7.67h.67l5.29,6.66h-.35v-6.66h.8v7.67h-.67l-5.28-6.66h.35v6.66h-.81Z"/>
      <path class="cls-1" d="M85.71,72.75v-7.67h3.12c.82,0,1.54.16,2.15.49.62.33,1.1.78,1.44,1.35.34.58.51,1.24.51,1.99s-.17,1.42-.51,1.99c-.34.58-.82,1.03-1.44,1.35-.62.33-1.33.49-2.15.49h-3.12ZM86.52,72.05h2.27c.68,0,1.27-.13,1.77-.4s.89-.63,1.17-1.11.42-1.01.42-1.63-.14-1.17-.42-1.63-.67-.83-1.17-1.1c-.5-.27-1.09-.4-1.77-.4h-2.27v6.27Z"/>
      <path class="cls-1" d="M95.81,72.75v-7.67h5.26v.7h-4.45v6.27h4.61v.7h-5.42ZM96.54,69.2v-.69h4.05v.69h-4.05Z"/>
      <path class="cls-1" d="M103.93,72.75v-7.67h.81v6.97h4.3v.7h-5.11Z"/>
      <path class="cls-1" d="M117.56,72.81c-.57,0-1.12-.09-1.64-.28-.52-.19-.93-.43-1.21-.72l.32-.62c.27.26.63.48,1.09.66.46.18.94.27,1.44.27s.88-.06,1.18-.18.53-.28.67-.49c.14-.2.21-.43.21-.68,0-.3-.09-.54-.26-.72s-.4-.33-.67-.43c-.28-.11-.58-.2-.92-.28-.34-.08-.67-.17-1.01-.26-.34-.09-.64-.21-.92-.37-.28-.15-.51-.36-.68-.61s-.26-.58-.26-.99c0-.38.1-.73.3-1.05s.51-.57.93-.77c.42-.19.95-.29,1.6-.29.43,0,.86.06,1.28.18.42.12.79.29,1.09.5l-.27.65c-.33-.22-.68-.38-1.05-.48-.37-.1-.72-.15-1.07-.15-.46,0-.84.06-1.14.19-.3.12-.52.29-.66.5-.14.21-.21.44-.21.71,0,.3.09.54.26.72.17.18.4.33.68.43s.59.19.93.27c.34.08.67.17,1,.26s.64.22.92.37c.28.15.51.35.68.6.17.25.26.57.26.97,0,.37-.1.72-.31,1.04-.21.32-.52.57-.94.77-.42.19-.96.29-1.62.29Z"/>
      <path class="cls-1" d="M122.11,72.75l3.51-7.67h.8l3.51,7.67h-.85l-3.22-7.2h.33l-3.22,7.2h-.84ZM123.5,70.7l.24-.66h4.46l.24.66h-4.94Z"/>
      <path class="cls-1" d="M132.3,72.75v-7.67h3.31c.85,0,1.52.17,1.99.51.47.34.71.83.71,1.46,0,.42-.1.77-.29,1.05-.19.29-.46.5-.79.65s-.7.22-1.09.22l.19-.26c.49,0,.91.07,1.27.22s.63.37.83.67.3.66.3,1.1c0,.65-.24,1.15-.72,1.51-.48.36-1.2.54-2.16.54h-3.53ZM133.12,72.08h2.71c.67,0,1.19-.12,1.54-.35s.54-.6.54-1.1-.18-.86-.54-1.09c-.36-.23-.87-.35-1.54-.35h-2.8v-.67h2.53c.61,0,1.09-.12,1.43-.35s.51-.58.51-1.04-.17-.82-.51-1.05c-.34-.23-.82-.35-1.43-.35h-2.44v6.33Z"/>
      <path class="cls-1" d="M145.01,72.81c-.58,0-1.11-.1-1.61-.29s-.92-.47-1.28-.82-.64-.77-.84-1.24c-.2-.47-.3-.99-.3-1.55s.1-1.08.3-1.55c.2-.47.48-.88.84-1.24s.79-.63,1.28-.82c.49-.19,1.03-.29,1.61-.29s1.11.1,1.6.29c.49.19.91.47,1.28.82.36.35.64.76.84,1.24.2.47.3.99.3,1.56s-.1,1.08-.3,1.56-.48.89-.84,1.24c-.36.35-.79.62-1.28.82-.49.19-1.02.29-1.6.29ZM145.01,72.09c.46,0,.89-.08,1.28-.24s.73-.38,1.02-.67.51-.62.67-1.01c.16-.38.24-.81.24-1.27s-.08-.88-.24-1.27c-.16-.38-.39-.72-.67-1.01-.29-.29-.63-.51-1.02-.67s-.82-.24-1.28-.24-.89.08-1.28.24c-.4.16-.74.38-1.03.67-.29.29-.52.62-.68,1.01s-.24.81-.24,1.27.08.87.24,1.26c.16.39.39.73.68,1.01.29.29.63.51,1.03.67.39.16.82.24,1.28.24Z"/>
      <path class="cls-1" d="M151.9,72.75v-7.67h2.87c.97,0,1.74.23,2.3.7.56.46.84,1.11.84,1.93,0,.54-.13,1.01-.38,1.4s-.61.69-1.08.9-1.03.31-1.68.31h-2.42l.36-.37v2.81h-.81ZM152.71,70.01l-.36-.38h2.4c.77,0,1.35-.17,1.75-.5s.6-.81.6-1.41-.2-1.09-.6-1.43c-.4-.34-.98-.5-1.75-.5h-2.4l.36-.38v4.61ZM157.14,72.75l-1.97-2.78h.88l1.98,2.78h-.89Z"/>
      <path class="cls-1" d="M164.89,72.75v-7.67h.67l5.29,6.66h-.35v-6.66h.8v7.67h-.67l-5.28-6.66h.35v6.66h-.81Z"/>
      <path class="cls-1" d="M173.67,72.75l3.51-7.67h.8l3.51,7.67h-.85l-3.22-7.2h.33l-3.22,7.2h-.84ZM175.05,70.7l.24-.66h4.46l.24.66h-4.94Z"/>
      <path class="cls-1" d="M184.63,72.75v-6.97h-2.7v-.7h6.2v.7h-2.7v6.97h-.81Z"/>
      <path class="cls-1" d="M193.64,72.81c-.98,0-1.75-.28-2.31-.84s-.84-1.4-.84-2.5v-4.39h.81v4.36c0,.91.2,1.57.61,2.01.41.43.99.65,1.73.65s1.33-.22,1.74-.65c.41-.43.61-1.1.61-2.01v-4.36h.79v4.39c0,1.1-.28,1.94-.84,2.5-.56.56-1.33.84-2.31.84Z"/>
      <path class="cls-1" d="M200.19,72.75v-7.67h2.87c.97,0,1.74.23,2.3.7.56.46.84,1.11.84,1.93,0,.54-.13,1.01-.38,1.4s-.61.69-1.08.9-1.03.31-1.68.31h-2.42l.36-.37v2.81h-.81ZM201,70.01l-.36-.38h2.4c.77,0,1.35-.17,1.75-.5s.6-.81.6-1.41-.2-1.09-.6-1.43c-.4-.34-.98-.5-1.75-.5h-2.4l.36-.38v4.61ZM205.42,72.75l-1.97-2.78h.88l1.98,2.78h-.89Z"/>
      <path class="cls-1" d="M208.33,72.75l3.51-7.67h.8l3.51,7.67h-.85l-3.22-7.2h.33l-3.22,7.2h-.84ZM209.71,70.7l.24-.66h4.46l.24.66h-4.94Z"/>
      <path class="cls-1" d="M218.52,72.75v-7.67h.81v6.97h4.3v.7h-5.11Z"/>
      <circle class="cls-2" cx="1.88" cy="68.91" r="1.88"/>
      <path class="cls-3" d="M80.05,49.61c-2.55,0-4.86-.45-6.93-1.35-2.07-.9-3.84-2.15-5.31-3.74-1.47-1.59-2.6-3.43-3.4-5.5-.8-2.07-1.2-4.28-1.2-6.62,0-2.87.56-5.38,1.67-7.55,1.12-2.16,2.59-3.96,4.44-5.39,1.84-1.44,3.86-2.51,6.06-3.21,2.2-.71,4.37-1.06,6.53-1.06,2.62,0,4.97.47,7.04,1.41,2.07.94,3.83,2.21,5.29,3.8,1.45,1.59,2.56,3.4,3.32,5.42.76,2.02,1.14,4.09,1.14,6.22,0,2.48-.5,4.78-1.49,6.91-.99,2.13-2.35,3.99-4.06,5.58-1.72,1.59-3.7,2.84-5.95,3.74-2.25.9-4.63,1.35-7.15,1.35ZM81.91,48.44c2.23,0,4.26-.58,6.08-1.73,1.82-1.15,3.26-2.83,4.3-5.05,1.04-2.21,1.57-4.93,1.57-8.16s-.58-6.23-1.73-8.79c-1.15-2.57-2.78-4.59-4.89-6.06-2.11-1.47-4.61-2.21-7.52-2.21-3.72,0-6.6,1.26-8.63,3.77-2.04,2.52-3.06,5.95-3.06,10.31,0,2.52.33,4.86.98,7.04.65,2.18,1.6,4.08,2.84,5.71,1.24,1.63,2.71,2.9,4.41,3.8,1.7.9,3.58,1.35,5.63,1.35Z"/>
      <path class="cls-3" d="M114.41,15.6c3.05,0,5.38.59,6.99,1.78,1.61,1.19,2.42,2.82,2.42,4.91,0,1.31-.31,2.57-.93,3.77-.62,1.2-1.45,2.27-2.5,3.19-1.05.92-2.25,1.65-3.61,2.18-1.36.53-2.77.8-4.22.8-.43,0-.87,0-1.33-.03-.46-.02-.89-.04-1.28-.08v12.54c0,1.03.1,1.81.29,2.34.19.53.6.89,1.22,1.06.62.18,1.55.27,2.79.27.11,0,.16.11.16.32s-.05.32-.16.32c-.89,0-1.86-.02-2.92-.05-1.06-.03-2.23-.05-3.51-.05-1.2,0-2.36.02-3.45.05-1.1.04-2.09.05-2.98.05-.11,0-.16-.11-.16-.32s.05-.32.16-.32c1.2,0,2.12-.09,2.74-.27.62-.18,1.04-.53,1.27-1.06.23-.53.35-1.31.35-2.34v-24.6c0-1.03-.11-1.8-.32-2.31s-.62-.87-1.22-1.06c-.6-.19-1.52-.29-2.76-.29-.07,0-.11-.11-.11-.32s.03-.32.11-.32c.88,0,1.87.03,2.95.08,1.08.05,2.22.08,3.43.08.96,0,2.05-.05,3.29-.16s2.34-.16,3.29-.16ZM119.4,24.21c0-2.02-.27-3.59-.8-4.7-.53-1.12-1.25-1.89-2.15-2.34-.9-.44-1.92-.66-3.06-.66-.85,0-1.52.08-2.02.24-.5.16-.86.5-1.09,1.04-.23.53-.35,1.33-.35,2.39v10.57c.5.04,1.04.08,1.62.13.58.05,1.09.08,1.51.08,2.27,0,3.89-.5,4.86-1.51.97-1.01,1.46-2.75,1.46-5.23ZM128.12,48.97c-.57,0-1.5-.71-2.79-2.13-1.29-1.42-2.84-3.43-4.65-6.06-1.81-2.62-3.84-5.74-6.11-9.35l3.56-1.17c2.98,4.46,5.5,8.01,7.57,10.65,2.07,2.64,3.91,4.53,5.5,5.68,1.59,1.15,3.12,1.73,4.57,1.73.11,0,.16.11.16.32s-.05.32-.16.32h-7.65Z"/>
      <path class="cls-3" d="M161.28,48.97h-22.63c-.11,0-.16-.11-.16-.32s.05-.32.16-.32c1.2,0,2.12-.09,2.74-.27.62-.18,1.04-.53,1.25-1.06.21-.53.32-1.31.32-2.34v-24.6c0-1.03-.11-1.8-.32-2.31-.21-.51-.63-.87-1.25-1.06-.62-.19-1.53-.29-2.74-.29-.11,0-.16-.11-.16-.32s.05-.32.16-.32h21.68c.35,0,.53.16.53.48l.11,6.69c0,.11-.1.17-.29.19-.2.02-.31-.03-.35-.13-.25-1.95-.94-3.43-2.07-4.44-1.13-1.01-2.62-1.51-4.46-1.51h-2.71c-1.06,0-1.88.09-2.44.27-.57.18-.96.5-1.17.98s-.32,1.14-.32,1.99v24.17c0,.85.1,1.51.29,1.99.19.48.56.81,1.09,1.01.53.2,1.28.29,2.23.29h3.51c2.02,0,3.68-.59,5-1.78,1.31-1.19,2.21-2.88,2.71-5.07,0-.11.11-.14.32-.11.21.04.32.11.32.21-.14.96-.27,2.11-.37,3.45-.11,1.35-.16,2.59-.16,3.72,0,.53-.27.8-.8.8ZM158.31,36.75c0-1.52-.43-2.65-1.3-3.37-.87-.73-2.26-1.09-4.17-1.09h-7.7v-1.22h7.86c1.81,0,3.13-.31,3.99-.93.85-.62,1.28-1.58,1.28-2.9,0-.07.1-.11.29-.11s.29.04.29.11c0,1.1,0,1.95-.03,2.55-.02.6-.03,1.24-.03,1.91,0,.82.03,1.63.08,2.44.05.82.08,1.68.08,2.6,0,.07-.11.11-.32.11s-.32-.03-.32-.11ZM146.83,12.89c-.14.07-.25,0-.32-.19-.07-.19-.05-.31.05-.35,1.56-.85,2.97-1.73,4.22-2.63,1.26-.9,2.52-1.76,3.8-2.58.14-.11.47-.09.98.05.51.14,1.05.33,1.62.56.57.23,1.01.45,1.33.66.32.21.35.34.11.37-2.37.57-4.48,1.19-6.32,1.86-1.84.67-3.67,1.42-5.47,2.23Z"/>
      <path class="cls-3" d="M179.71,34.52l-9.09-13.6c-1.17-1.74-2.18-2.92-3.03-3.56-.85-.64-1.77-.96-2.76-.96-.11,0-.16-.11-.16-.32s.05-.32.16-.32c.57,0,1.17.03,1.81.08.64.05,1.24.08,1.81.08.99,0,1.97,0,2.92-.03s1.87-.04,2.74-.08c.87-.03,1.62-.05,2.26-.05.07,0,.11.11.11.32s-.04.32-.11.32c-1.27,0-2.06.25-2.36.74-.3.5-.15,1.17.45,2.02l8.61,12.91-3.35,2.44ZM179.07,32.5l4.25-.48v12.64c0,1.03.1,1.81.29,2.34.19.53.59.89,1.19,1.06.6.18,1.52.27,2.76.27.11,0,.16.11.16.32s-.05.32-.16.32c-.85,0-1.82-.02-2.9-.05-1.08-.03-2.26-.05-3.53-.05-1.2,0-2.36.02-3.48.05-1.12.04-2.1.05-2.95.05-.11,0-.16-.11-.16-.32s.05-.32.16-.32c1.24,0,2.17-.09,2.79-.27.62-.18,1.04-.53,1.25-1.06.21-.53.32-1.31.32-2.34v-12.17ZM181.04,33.83l7.54-11.85c1.06-1.77,1.45-3.14,1.17-4.12-.28-.97-1.22-1.46-2.82-1.46-.11,0-.16-.11-.16-.32s.05-.32.16-.32c1.03,0,1.99.03,2.9.08.9.05,2.1.08,3.59.08.88,0,1.6-.03,2.15-.08.55-.05,1.21-.08,1.99-.08.07,0,.11.11.11.32s-.04.32-.11.32c-.78,0-1.63.24-2.55.72-.92.48-1.82,1.15-2.68,2.02-.87.87-1.67,1.9-2.42,3.11l-7.86,12.43-1.01-.85Z"/>
      <path class="cls-3" d="M231.49,48.33c.18,0,.27.11.27.32s-.09.32-.27.32c-1.03,0-2.08-.03-3.16-.11-1.08-.07-2.13-.11-3.16-.11-1.13,0-2.12.04-2.95.11-.83.07-1.76.11-2.79.11-.14,0-.21-.11-.21-.32s.07-.32.21-.32c1.74,0,2.8-.27,3.19-.82.39-.55.19-1.64-.58-3.27l-11.42-23.75,1.7-2.55-10.36,24.02c-.92,2.16-.97,3.76-.16,4.81.81,1.04,2.34,1.57,4.57,1.57.18,0,.27.11.27.32s-.09.32-.27.32c-1.06,0-2.04-.03-2.92-.11-.89-.07-2-.11-3.35-.11s-2.36.04-3.16.11c-.8.07-1.76.11-2.9.11-.14,0-.21-.11-.21-.32s.07-.32.21-.32c.96,0,1.79-.19,2.5-.56.71-.37,1.39-1.05,2.05-2.04s1.37-2.41,2.15-4.25l11.32-26.09c.03-.11.16-.17.37-.19.21-.02.34.05.37.19l12.75,26.3c.85,1.74,1.58,3.09,2.2,4.06.62.97,1.23,1.65,1.83,2.02s1.24.56,1.91.56ZM205.51,31.91l.8-1.22h10.94l.37,1.22h-12.11Z"/>
      <path class="cls-3" d="M26.93,56.61c-1.36,0-2.17-.13-2.2-.13-.29-.05-.49-.33-.44-.62s.32-.49.62-.44c.12.02,12.23,1.89,22.06-9.83,8.94-10.66,6.48-21.21,5.93-23.13-1.99-.2-12.8-.79-21.74,9.87-1.33,1.58-2.48,3.25-3.42,4.96-.14.26-.47.35-.73.21-.26-.14-.35-.47-.21-.73.97-1.77,2.16-3.49,3.53-5.13,10.24-12.21,22.93-10.22,23.06-10.2.19.03.35.17.41.35.04.12,4.22,12.28-6.02,24.49-7.69,9.17-16.77,10.33-20.86,10.33Z"/>
      <path class="cls-3" d="M27.45,56.69c-3.58,0-13.4-1.01-21.25-11.18C-3.55,32.9,1.11,20.92,1.15,20.8c.07-.18.24-.31.43-.33.13-.02,12.89-1.5,22.64,11.12,9.74,12.61,5.09,24.59,5.04,24.71-.07.18-.24.31-.43.33-.02,0-.52.06-1.38.06ZM28.76,56.1h.01-.01ZM2.04,21.51c-.63,1.9-3.5,12.34,5,23.35,8.5,11.01,19.33,10.86,21.33,10.74.63-1.9,3.5-12.34-5-23.35C14.85,21.22,4.04,21.38,2.04,21.51Z"/>
      <path class="cls-3" d="M28.59,56.23c-.1,0-.2-.03-.3-.09-.25-.16-.32-.5-.15-.74l14-21.23c.16-.25.49-.31.74-.15.25.16.32.5.15.74l-14,21.23c-.1.16-.27.24-.45.24Z"/>
      <path class="cls-3" d="M28.25,55.62c-.15,0-.31-.07-.42-.2l-16.97-20.85c-.19-.23-.15-.57.08-.75.23-.19.57-.15.75.08l16.97,20.85c.19.23.15.57-.08.75-.1.08-.22.12-.34.12Z"/>
      <path class="cls-2" d="M1.87,17.37c-.07,0-.15-.01-.22-.05-.27-.12-.39-.44-.27-.71.67-1.53,1.49-3.01,2.44-4.4C8.29,5.62,15.37,1.23,23.27.17c.3-.04.56.17.6.46.04.29-.17.56-.46.6-7.59,1.02-14.41,5.25-18.7,11.58-.91,1.34-1.7,2.77-2.35,4.23-.09.2-.28.32-.49.32Z"/>
      <path class="cls-2" d="M52.49,18.27c-.21,0-.41-.13-.5-.34-2-5.02-5.42-9.28-9.91-12.32-3.85-2.61-8.32-4.18-12.93-4.54-.3-.02-.52-.28-.49-.58.02-.3.29-.51.58-.49,4.79.38,9.44,2.02,13.44,4.73,4.67,3.16,8.23,7.59,10.31,12.81.11.27-.03.59-.3.7-.06.03-.13.04-.2.04Z"/>
      <path class="cls-2" d="M27.57,9.31c.56.63,1.23,1.44,1.9,2.38.92,1.29,1.66,2.56,2.18,3.77.63,1.47.95,2.85.95,4.11,0,1.4-.55,2.72-1.54,3.71-.99.99-2.31,1.54-3.71,1.54s-2.72-.55-3.71-1.54-1.54-2.31-1.54-3.71c0-.82.23-1.63.74-2.56.48-.89,1.13-1.75,1.83-2.66.76-1,1.54-2.03,2.15-3.18.33-.63.59-1.25.76-1.86M26.9,7.2c0,5.02-5.78,7.9-5.78,12.37,0,3.44,2.79,6.22,6.22,6.22s6.22-2.79,6.22-6.22c0-6.11-6.67-12.37-6.67-12.37h0Z"/>
    </g>
  </g>
</svg>